<?xml version="1.0" encoding="utf-8"?>
<!-- Generator: Adobe Illustrator 17.1.0, SVG Export Plug-In . SVG Version: 6.00 Build 0)  -->
<!DOCTYPE svg PUBLIC "-//W3C//DTD SVG 1.1//EN" "http://www.w3.org/Graphics/SVG/1.1/DTD/svg11.dtd">
<svg version="1.1" id="Livello_1" xmlns="http://www.w3.org/2000/svg" xmlns:xlink="http://www.w3.org/1999/xlink" x="0px" y="0px"
	 viewBox="0 0 532.1 152.6" enable-background="new 0 0 532.1 152.6" xml:space="preserve">
<g>
	<g>
		<rect x="363.5" y="6.4" fill="#224B63" width="36.2" height="83"/>
		<rect x="286.1" y="6.4" fill="#224B63" width="36.6" height="83"/>
	</g>
	<g>
		<path fill="#FFFFFF" d="M6.2,146.2V6.2c10.4,0,20.7,0,30.9-0.1c10.2-0.1,20.5,0,30.9,0.1c8.4,0,15.8,1.5,22.1,4.5
			c6.3,3,11.6,7,15.8,11.9c4.2,4.9,7.3,10.6,9.4,16.9c2.1,6.3,3,12.8,2.9,19.3c0,6.4-1.1,12.7-3.2,18.8c-2.1,6.1-5.3,11.6-9.5,16.4
			c-4.2,4.8-9.4,8.7-15.6,11.6c-6.2,2.9-13.5,4.4-21.9,4.4H42.8v36.2H6.2z M68,78.2c2.4,0,4.5-0.6,6.4-1.8c1.9-1.2,3.5-2.7,4.8-4.6
			c1.3-1.9,2.3-4,3-6.5c0.7-2.5,1-5,1-7.5c0-2.5-0.3-5-0.9-7.3c-0.6-2.3-1.6-4.4-2.9-6.3c-1.3-1.9-2.9-3.4-4.8-4.5
			C72.7,38.6,70.5,38,68,38H42.2v40.2H68z"/>
		<path fill="#FFFFFF" d="M269.7,76.4c0,10.7-1.8,20.5-5.3,29.4c-3.5,8.9-8.5,16.6-14.8,23c-6.3,6.4-13.9,11.4-22.7,14.9
			c-8.8,3.5-18.5,5.3-29.2,5.3c-9.3,0-18.3-1.5-26.8-4.5c-8.5-3-16.1-7.5-22.8-13.6c-6.7-6.1-12-13.6-16-22.7c-4-9.1-6-19.7-6-31.8
			c0-12.1,2.1-22.7,6.2-31.8c4.1-9.1,9.6-16.6,16.3-22.7c6.7-6.1,14.4-10.6,23-13.7c8.6-3.1,17.5-4.6,26.7-4.6
			c8.9,0,17.7,1.5,26.2,4.6c8.5,3.1,16.2,7.6,22.9,13.7c6.7,6.1,12.1,13.6,16.2,22.7C267.7,53.7,269.7,64.3,269.7,76.4z M162.8,76.4
			c0,6.3,1,11.8,3,16.5c2,4.7,4.6,8.7,7.9,11.9c3.3,3.2,7,5.6,11.2,7.2c4.2,1.6,8.6,2.4,13.1,2.4c4.4,0,8.7-0.8,12.9-2.4
			c4.2-1.6,7.9-4,11.2-7.2c3.3-3.2,5.9-7.2,8-11.9c2.1-4.7,3.1-10.2,3.1-16.5c0-6.3-1-11.8-3-16.5c-2-4.7-4.6-8.7-7.9-11.8
			c-3.3-3.1-7-5.5-11.1-7.2c-4.1-1.7-8.4-2.5-12.8-2.5c-4.5,0-8.9,0.8-13.2,2.3c-4.3,1.5-8.1,3.9-11.4,7.1c-3.3,3.2-6,7.2-8,11.9
			C163.8,64.4,162.8,70,162.8,76.4z"/>
		<path fill="#FFFFFF" d="M525.3,11.8l-56.2,102h56.8v32.6H415.3v-5.2l56.4-103h-51.4V6.4h105V11.8z"/>
		<path fill="#FFFFFF" d="M289.9,116.6c0.6,1.5,1.2,3,1.9,4.4c3.1,6,7.4,11,12.7,15c5.3,4,11.4,7,18.2,9.1
			c6.8,2.1,13.9,3.1,21.4,3.1c7.3,0,14.4-1,21.2-3.1c6.8-2.1,12.8-5.1,18.1-9.1c5.3-4,9.5-9,12.6-15c0.7-1.4,1.4-2.9,1.9-4.4H289.9z
			"/>
	</g>
</g>
</svg>
